# xmcd CD database file
#
# Track frame offsets:
#	150
#	12628
#	28720
#	45862
#	59194
#	81918
#	102011
#	120535
#	139072
#	155031
#	170490
#	189182
#	202130
#	221151
#
# Disc length: 3141 seconds
#
# Revision: 0
# Processed by: cddbd v1.5.2PL0 Copyright (c) Steve Scherf et al.
# Submitted via: CDex 1.51
#
DISCID=c90c430e
DTITLE=Bandari - Relaxation - Honesty
DYEAR=2004
DGENRE=New Age
TTITLE0=Comptine D'Un Autre Ete
TTITLE1=Indian Summerrain
TTITLE2=Forever Young
TTITLE3=Stars Over The Rainbow
TTITLE4=Mama
TTITLE5=One Day In Spring
TTITLE6=Neptun
TTITLE7=The Golden Land
TTITLE8=Siderial Hour
TTITLE9=The Wings Of Icarus
TTITLE10=Just A Little Smile
TTITLE11=Luna
TTITLE12=Mountain Stream
TTITLE13=Island In The Sun
EXTD=YEAR: 2004
EXTT0=
EXTT1=
EXTT2=
EXTT3=
EXTT4=
EXTT5=
EXTT6=
EXTT7=
EXTT8=
EXTT9=
EXTT10=
EXTT11=
EXTT12=
EXTT13=
PLAYORDER=
